<svg id="visual" viewBox="0 0 900 600" width="900" height="600" xmlns="http://www.w3.org/2000/svg" xmlns:xlink="http://www.w3.org/1999/xlink" version="1.1"><path d="M519 0L510.3 11.2C501.7 22.3 484.3 44.7 471.2 66.8C458 89 449 111 454.8 133.2C460.7 155.3 481.3 177.7 492.2 200C503 222.3 504 244.7 507.3 266.8C510.7 289 516.3 311 518.5 333.2C520.7 355.3 519.3 377.7 507.8 400C496.3 422.3 474.7 444.7 464.2 466.8C453.7 489 454.3 511 452.5 533.2C450.7 555.3 446.3 577.7 444.2 588.8L442 600L0 600L0 588.8C0 577.7 0 555.3 0 533.2C0 511 0 489 0 466.8C0 444.7 0 422.3 0 400C0 377.7 0 355.3 0 333.2C0 311 0 289 0 266.8C0 244.7 0 222.3 0 200C0 177.7 0 155.3 0 133.2C0 111 0 89 0 66.8C0 44.7 0 22.3 0 11.2L0 0Z" fill="#fa7268"></path><path d="M461 0L459.7 11.2C458.3 22.3 455.7 44.7 457.7 66.8C459.7 89 466.3 111 464.2 133.2C462 155.3 451 177.7 448.2 200C445.3 222.3 450.7 244.7 452.2 266.8C453.7 289 451.3 311 445.8 333.2C440.3 355.3 431.7 377.7 429.3 400C427 422.3 431 444.7 434.2 466.8C437.3 489 439.7 511 443.2 533.2C446.7 555.3 451.3 577.7 453.7 588.8L456 600L0 600L0 588.8C0 577.7 0 555.3 0 533.2C0 511 0 489 0 466.8C0 444.7 0 422.3 0 400C0 377.7 0 355.3 0 333.2C0 311 0 289 0 266.8C0 244.7 0 222.3 0 200C0 177.7 0 155.3 0 133.2C0 111 0 89 0 66.8C0 44.7 0 22.3 0 11.2L0 0Z" fill="#f66b68"></path><path d="M368 0L371.7 11.2C375.3 22.3 382.7 44.7 381.2 66.8C379.7 89 369.3 111 376.8 133.2C384.3 155.3 409.7 177.7 415.5 200C421.3 222.3 407.7 244.7 400.3 266.8C393 289 392 311 394.2 333.2C396.3 355.3 401.7 377.7 404.8 400C408 422.3 409 444.7 401.2 466.8C393.3 489 376.7 511 370.2 533.2C363.7 555.3 367.3 577.7 369.2 588.8L371 600L0 600L0 588.8C0 577.7 0 555.3 0 533.2C0 511 0 489 0 466.8C0 444.7 0 422.3 0 400C0 377.7 0 355.3 0 333.2C0 311 0 289 0 266.8C0 244.7 0 222.3 0 200C0 177.7 0 155.3 0 133.2C0 111 0 89 0 66.8C0 44.7 0 22.3 0 11.2L0 0Z" fill="#f26467"></path><path d="M367 0L361.7 11.2C356.3 22.3 345.7 44.7 348.5 66.8C351.3 89 367.7 111 376.2 133.2C384.7 155.3 385.3 177.7 381.3 200C377.3 222.3 368.7 244.7 359.3 266.8C350 289 340 311 342.2 333.2C344.3 355.3 358.7 377.7 361.2 400C363.7 422.3 354.3 444.7 357.7 466.8C361 489 377 511 373.8 533.2C370.7 555.3 348.3 577.7 337.2 588.8L326 600L0 600L0 588.8C0 577.7 0 555.3 0 533.2C0 511 0 489 0 466.8C0 444.7 0 422.3 0 400C0 377.7 0 355.3 0 333.2C0 311 0 289 0 266.8C0 244.7 0 222.3 0 200C0 177.7 0 155.3 0 133.2C0 111 0 89 0 66.8C0 44.7 0 22.3 0 11.2L0 0Z" fill="#ee5d67"></path><path d="M319 0L315.7 11.2C312.3 22.3 305.7 44.7 305.5 66.8C305.3 89 311.7 111 311.3 133.2C311 155.3 304 177.7 309.7 200C315.3 222.3 333.7 244.7 332.7 266.8C331.7 289 311.3 311 303.2 333.2C295 355.3 299 377.7 305 400C311 422.3 319 444.7 323 466.8C327 489 327 511 323.8 533.2C320.7 555.3 314.3 577.7 311.2 588.8L308 600L0 600L0 588.8C0 577.7 0 555.3 0 533.2C0 511 0 489 0 466.8C0 444.7 0 422.3 0 400C0 377.7 0 355.3 0 333.2C0 311 0 289 0 266.8C0 244.7 0 222.3 0 200C0 177.7 0 155.3 0 133.2C0 111 0 89 0 66.8C0 44.7 0 22.3 0 11.2L0 0Z" fill="#ea5667"></path><path d="M251 0L252.5 11.2C254 22.3 257 44.7 261.5 66.8C266 89 272 111 280 133.2C288 155.3 298 177.7 295 200C292 222.3 276 244.7 274.3 266.8C272.7 289 285.3 311 293.7 333.2C302 355.3 306 377.7 303.5 400C301 422.3 292 444.7 282.8 466.8C273.7 489 264.3 511 259 533.2C253.7 555.3 252.3 577.7 251.7 588.8L251 600L0 600L0 588.8C0 577.7 0 555.3 0 533.2C0 511 0 489 0 466.8C0 444.7 0 422.3 0 400C0 377.7 0 355.3 0 333.2C0 311 0 289 0 266.8C0 244.7 0 222.3 0 200C0 177.7 0 155.3 0 133.2C0 111 0 89 0 66.8C0 44.7 0 22.3 0 11.2L0 0Z" fill="#e54f67"></path><path d="M237 0L240.5 11.2C244 22.3 251 44.7 255.5 66.8C260 89 262 111 263.8 133.2C265.7 155.3 267.3 177.7 266 200C264.7 222.3 260.3 244.7 255.2 266.8C250 289 244 311 237.5 333.2C231 355.3 224 377.7 228.3 400C232.7 422.3 248.3 444.7 257.5 466.8C266.7 489 269.3 511 261.3 533.2C253.3 555.3 234.7 577.7 225.3 588.8L216 600L0 600L0 588.8C0 577.7 0 555.3 0 533.2C0 511 0 489 0 466.8C0 444.7 0 422.3 0 400C0 377.7 0 355.3 0 333.2C0 311 0 289 0 266.8C0 244.7 0 222.3 0 200C0 177.7 0 155.3 0 133.2C0 111 0 89 0 66.8C0 44.7 0 22.3 0 11.2L0 0Z" fill="#e14867"></path><path d="M198 0L199.3 11.2C200.7 22.3 203.3 44.7 205.5 66.8C207.7 89 209.3 111 209.8 133.2C210.3 155.3 209.7 177.7 205.7 200C201.7 222.3 194.3 244.7 195.5 266.8C196.7 289 206.3 311 206 333.2C205.7 355.3 195.3 377.7 196.3 400C197.3 422.3 209.7 444.7 215.5 466.8C221.3 489 220.7 511 219.3 533.2C218 555.3 216 577.7 215 588.8L214 600L0 600L0 588.8C0 577.7 0 555.3 0 533.2C0 511 0 489 0 466.8C0 444.7 0 422.3 0 400C0 377.7 0 355.3 0 333.2C0 311 0 289 0 266.8C0 244.7 0 222.3 0 200C0 177.7 0 155.3 0 133.2C0 111 0 89 0 66.8C0 44.7 0 22.3 0 11.2L0 0Z" fill="#dc4167"></path><path d="M185 0L185.2 11.2C185.3 22.3 185.7 44.7 179.5 66.8C173.3 89 160.7 111 154.8 133.2C149 155.3 150 177.7 152 200C154 222.3 157 244.7 158 266.8C159 289 158 311 161.3 333.2C164.7 355.3 172.3 377.7 176.7 400C181 422.3 182 444.7 178.2 466.8C174.3 489 165.7 511 164.3 533.2C163 555.3 169 577.7 172 588.8L175 600L0 600L0 588.8C0 577.7 0 555.3 0 533.2C0 511 0 489 0 466.8C0 444.7 0 422.3 0 400C0 377.7 0 355.3 0 333.2C0 311 0 289 0 266.8C0 244.7 0 222.3 0 200C0 177.7 0 155.3 0 133.2C0 111 0 89 0 66.8C0 44.7 0 22.3 0 11.2L0 0Z" fill="#d73a67"></path><path d="M113 0L117.8 11.2C122.7 22.3 132.3 44.7 137.8 66.8C143.3 89 144.7 111 145.3 133.2C146 155.3 146 177.7 141.3 200C136.7 222.3 127.3 244.7 123 266.8C118.7 289 119.3 311 118.3 333.2C117.3 355.3 114.7 377.7 117.2 400C119.7 422.3 127.3 444.7 131.5 466.8C135.7 489 136.3 511 133 533.2C129.7 555.3 122.3 577.7 118.7 588.8L115 600L0 600L0 588.8C0 577.7 0 555.3 0 533.2C0 511 0 489 0 466.8C0 444.7 0 422.3 0 400C0 377.7 0 355.3 0 333.2C0 311 0 289 0 266.8C0 244.7 0 222.3 0 200C0 177.7 0 155.3 0 133.2C0 111 0 89 0 66.8C0 44.7 0 22.3 0 11.2L0 0Z" fill="#d13367"></path><path d="M80 0L82.3 11.2C84.7 22.3 89.3 44.7 92.3 66.8C95.3 89 96.7 111 98 133.2C99.3 155.3 100.7 177.7 97.2 200C93.7 222.3 85.3 244.7 82.8 266.8C80.3 289 83.7 311 84.2 333.2C84.7 355.3 82.3 377.7 82.3 400C82.3 422.3 84.7 444.7 88.7 466.8C92.7 489 98.3 511 98.8 533.2C99.3 555.3 94.7 577.7 92.3 588.8L90 600L0 600L0 588.8C0 577.7 0 555.3 0 533.2C0 511 0 489 0 466.8C0 444.7 0 422.3 0 400C0 377.7 0 355.3 0 333.2C0 311 0 289 0 266.8C0 244.7 0 222.3 0 200C0 177.7 0 155.3 0 133.2C0 111 0 89 0 66.8C0 44.7 0 22.3 0 11.2L0 0Z" fill="#cc2b68"></path><path d="M52 0L50.8 11.2C49.7 22.3 47.3 44.7 45.2 66.8C43 89 41 111 42.5 133.2C44 155.3 49 177.7 49 200C49 222.3 44 244.7 42.8 266.8C41.7 289 44.3 311 48.3 333.2C52.3 355.3 57.7 377.7 57.3 400C57 422.3 51 444.7 46.8 466.8C42.7 489 40.3 511 41.7 533.2C43 555.3 48 577.7 50.5 588.8L53 600L0 600L0 588.8C0 577.7 0 555.3 0 533.2C0 511 0 489 0 466.8C0 444.7 0 422.3 0 400C0 377.7 0 355.3 0 333.2C0 311 0 289 0 266.8C0 244.7 0 222.3 0 200C0 177.7 0 155.3 0 133.2C0 111 0 89 0 66.8C0 44.7 0 22.3 0 11.2L0 0Z" fill="#c62368"></path></svg>