<svg width="198" height="103" xmlns="http://www.w3.org/2000/svg">

 <g label="Layer 1" id="imagebot_2">
  <path transform="translate(-1.42908 -0.589404) matrix(1 0 0 1 0 -952.36)" label="Layer 1" stroke="#000000" stroke-width="0.97378" fill="#00ff00" d="M147.1,953.47C137.4588,953.5001 127.864,956.1853 119.712,961.808C114.8605,965.1546 110.8311,969.3244 107.357,974.072C105.0331,977.2469 103.0243,981.7558 98.9277,982.9882C95.385,984.0542 92.7021,980.1565 89.1594,980.7059C86.5782,981.10621 87.1648,984.3234 84.9904,985.2705C83.7549,985.80874 76.3109,988.3275 75.3743,988.0701C73.5202,987.56055 72.8579,985.2054 70.6575,985.3618C67.756,985.56788 66.8294,989.1771 64.2366,989.8047C61.9012,990.36995 60.2217,987.0483 58.546,985.9704C54.7004,983.4962 51.0166,986.96557 49.295,990.2307C46.5766,988.8126 44.9894,984.9519 41.809,984.6923C38.8079,984.44738 36.8851,987.8468 34.3535,987.5528C30.2866,987.08052 27.6609,983.2608 22.7595,984.7532C16.9884,986.5103 11.8065,994.0928 7.1485,997.8082C5.3359,999.2541 2.5531,1000.9628 2.2491,1003.4987C1.91597,1006.2781 5.5998,1010.2191 7.3919,1012.0801C10.6974,1015.5126 18.9259,1013.8756 23.3379,1013.8756C37.9899,1013.8756 52.5699,1015.0308 67.1889,1015.032C73.1258,1015.0326 85.5649,1012.1473 85.6599,1020.2356L96.0669,1020.6616L104.131,1024.2829C105.4029,1031.3324 112.3635,1037.6399 117.916,1041.6589C134.604,1053.7369 159.265,1055.1709 176.252,1042.5415C191.68,1031.0705 199.356,1012.3725 196.793,993.3655C196.07628,988.0541 192.5299,983.2515 191.8328,978.1195C186.8752,973.3665 183.6717,967.4355 177.9568,963.2995C169.0206,956.8331 158.0268,953.4363 147.0998,953.4704L147.1,953.47zM172.601,974.68C181.3787,974.68 188.486,987.205 188.486,1002.646S181.3788,1030.612 172.601,1030.612C163.8233,1030.612 156.716,1018.088 156.716,1002.646C156.716,987.205 163.8232,974.68 172.601,974.68z" id="imagebot_4"/>
  <path transform="translate(-1.42908 -0.589404) matrix(1 0 0 1 0 -952.36)" label="Layer 1" stroke="#000000" stroke-width="0.97378" fill="none" d="M17.944,1004.6C122.154,1005.5034 122.324,996.0729 16.5376,996.1686" id="imagebot_3"/>
  <title>Layer 1</title>
 </g>
 <metadata>image/svg+xmlOpenclipartSimple gold key2010-08-11T11:31:06https://openclipart.org/detail/79417/simple-gold-key-by-milovanderlindenmilovanderlindengoldkeyline art</metadata>
</svg>