<?xml version="1.0" ?><svg clip-rule="evenodd" fill-rule="evenodd" image-rendering="optimizeQuality" shape-rendering="geometricPrecision" text-rendering="geometricPrecision" viewBox="0 0 500 500" xmlns="http://www.w3.org/2000/svg"><defs><radialGradient cx="250" cy="245.78" fx="250" fy="245.78" gradientUnits="userSpaceOnUse" id="a" r="210.976"><stop offset="0" stop-color="#0af"/><stop offset="1" stop-color="#008BFF"/></radialGradient></defs><path d="M401 43l-92 91c-3 4-10 4-14 0l-5-5c-10-10-15-10-20-10-10 0-20 10-20 20v90c0 10 10 20 20 20h90c10 0 20-10 20-20 0-5 0-10-10-20l-4-4c-4-4-4-11 0-14l91-92c4-3 4-10 0-14l-42-42c-4-4-11-4-14 0zm-272 247l5 5c4 4 4 11 0 14l-91 92c-4 3-4 10 0 14l42 42c4 4 11 4 14 0l92-91c3-4 10-4 14 0l4 4c10 10 15 10 20 10 10 0 20-10 20-20v-90c0-10-10-20-20-20h-90c-10 0-20 10-20 20 0 5 0 10 10 20z" fill="url(#a)" stroke="#2B2A29" stroke-width="10"/></svg>